    <svg xmlns="http://www.w3.org/2000/svg" width="200" height="200" viewBox="0 0 24 24"><path fill="none" stroke="currentColor" stroke-linecap="round" stroke-linejoin="round" stroke-width="2" d="m12 6l-8 4l8 4l8-4l-8-4m-8 8l8 4l8-4"/></svg>
    <svg xmlns="http://www.w3.org/2000/svg" width="200" height="200" viewBox="0 0 24 24"><g fill="none" stroke="currentColor" stroke-linecap="round" stroke-linejoin="round" stroke-width="2"><path d="m16 10l4-2l-8-4l-8 4l4 2"/><path fill="currentColor" d="m12 12l-4-2l-4 2l8 4l8-4l-4-2l-4 2z"/><path d="m8 14l-4 2l8 4l8-4l-4-2"/></g></svg>
    <svg xmlns="http://www.w3.org/2000/svg" width="200" height="200" viewBox="0 0 24 24"><g fill="none" fill-rule="evenodd"><path d="M24 0v24H0V0zM12.594 23.258l-.012.002l-.071.035l-.02.004l-.014-.004l-.071-.036c-.01-.003-.019 0-.024.006l-.004.01l-.017.428l.005.02l.01.013l.104.074l.015.004l.012-.004l.104-.074l.012-.016l.004-.017l-.017-.427c-.002-.01-.009-.017-.016-.018m.264-.113l-.014.002l-.184.093l-.01.01l-.003.011l.018.43l.005.012l.008.008l.201.092c.012.004.023 0 .029-.008l.004-.014l-.034-.614c-.003-.012-.01-.02-.02-.022m-.715.002a.023.023 0 0 0-.027.006l-.006.014l-.034.614c0 .012.007.02.017.024l.015-.002l.201-.093l.01-.008l.003-.011l.018-.43l-.003-.012l-.01-.01z"/><path fill="currentColor" d="M19.83 4.829a1 1 0 0 1-.26.964L17.804 7.56a3 3 0 0 1-4.243 4.242l-1.767 1.768a1 1 0 0 1-1.672-.444L9.085 9.329l-2.798 2.798L11.535 20H14a1 1 0 0 1 0 2H8a1 1 0 0 1 0-2h1.13l-4.508-6.763a2 2 0 0 1 .25-2.524l3.606-3.606l-.48-1.758a1 1 0 0 1 .258-.97l2.122-2.122a1 1 0 0 1 .97-.257l7.778 2.12a1 1 0 0 1 .703.709m-4.855 5.56a1 1 0 0 0 1.414-1.414z"/></g></svg>
    <svg xmlns="http://www.w3.org/2000/svg" width="200" height="200" viewBox="0 0 24 24"><g fill="none" stroke="currentColor" stroke-linecap="round" stroke-linejoin="round" stroke-width="2"><path d="M5 21h9m-4 0l-7-8l8.5-5.5"/><path d="M13 14c-2.148-2.148-2.148-5.852 0-8c2.088-2.088 5.842-1.972 8 0l-8 8z"/><path d="m11.742 7.574l-1.156-1.156a2 2 0 0 1 2.828-2.829l1.144 1.144M15.5 12l.208.274a2.527 2.527 0 0 0 3.556 0c.939-.933.98-2.42.122-3.4l-.366-.369"/></g></svg>
    <svg xmlns="http://www.w3.org/2000/svg" width="200" height="200" viewBox="0 0 16 16"><g fill="currentColor"><path fill-rule="evenodd" d="M5.04.303A.5.5 0 0 1 5.5 0h5c.2 0 .38.12.46.303l3 7a.5.5 0 0 1-.363.687h-.002c-.15.03-.3.056-.45.081a32.731 32.731 0 0 1-4.645.425V13.5a.5.5 0 1 1-1 0V8.495a32.753 32.753 0 0 1-4.645-.425c-.15-.025-.3-.05-.45-.08h-.003a.5.5 0 0 1-.362-.688l3-7Z"/><path d="M6.493 12.574a.5.5 0 0 1-.411.575c-.712.118-1.28.295-1.655.493a1.319 1.319 0 0 0-.37.265a.301.301 0 0 0-.052.075l-.001.004l-.004.01V14l.002.008a.147.147 0 0 0 .016.033a.62.62 0 0 0 .145.15c.165.13.435.27.813.395c.751.25 1.82.414 3.024.414s2.273-.163 3.024-.414c.378-.126.648-.265.813-.395a.62.62 0 0 0 .146-.15a.148.148 0 0 0 .015-.033L12 14v-.004a.301.301 0 0 0-.057-.09a1.318 1.318 0 0 0-.37-.264c-.376-.198-.943-.375-1.655-.493a.5.5 0 1 1 .164-.986c.77.127 1.452.328 1.957.594C12.5 13 13 13.4 13 14c0 .426-.26.752-.544.977c-.29.228-.68.413-1.116.558c-.878.293-2.059.465-3.34.465c-1.281 0-2.462-.172-3.34-.465c-.436-.145-.826-.33-1.116-.558C3.26 14.752 3 14.426 3 14c0-.599.5-1 .961-1.243c.505-.266 1.187-.467 1.957-.594a.5.5 0 0 1 .575.411Z"/></g></svg>
     <svg xmlns="http://www.w3.org/2000/svg" width="200" height="200" viewBox="0 0 24 24"><path fill="none" stroke="currentColor" stroke-linecap="round" stroke-linejoin="round" stroke-width="2" d="m12 6l-8 4l8 4l8-4l-8-4m-8 8l8 4l8-4"/></svg>
    <svg xmlns="http://www.w3.org/2000/svg" width="200" height="200" viewBox="0 0 24 24"><g fill="none" stroke="currentColor" stroke-linecap="round" stroke-linejoin="round" stroke-width="2"><path d="m16 10l4-2l-8-4l-8 4l4 2"/><path fill="currentColor" d="m12 12l-4-2l-4 2l8 4l8-4l-4-2l-4 2z"/><path d="m8 14l-4 2l8 4l8-4l-4-2"/></g></svg>
    <svg xmlns="http://www.w3.org/2000/svg" width="200" height="200" viewBox="0 0 24 24"><g fill="none" fill-rule="evenodd"><path d="M24 0v24H0V0zM12.594 23.258l-.012.002l-.071.035l-.02.004l-.014-.004l-.071-.036c-.01-.003-.019 0-.024.006l-.004.01l-.017.428l.005.02l.01.013l.104.074l.015.004l.012-.004l.104-.074l.012-.016l.004-.017l-.017-.427c-.002-.01-.009-.017-.016-.018m.264-.113l-.014.002l-.184.093l-.01.01l-.003.011l.018.43l.005.012l.008.008l.201.092c.012.004.023 0 .029-.008l.004-.014l-.034-.614c-.003-.012-.01-.02-.02-.022m-.715.002a.023.023 0 0 0-.027.006l-.006.014l-.034.614c0 .012.007.02.017.024l.015-.002l.201-.093l.01-.008l.003-.011l.018-.43l-.003-.012l-.01-.01z"/><path fill="currentColor" d="M19.83 4.829a1 1 0 0 1-.26.964L17.804 7.56a3 3 0 0 1-4.243 4.242l-1.767 1.768a1 1 0 0 1-1.672-.444L9.085 9.329l-2.798 2.798L11.535 20H14a1 1 0 0 1 0 2H8a1 1 0 0 1 0-2h1.13l-4.508-6.763a2 2 0 0 1 .25-2.524l3.606-3.606l-.48-1.758a1 1 0 0 1 .258-.97l2.122-2.122a1 1 0 0 1 .97-.257l7.778 2.12a1 1 0 0 1 .703.709m-4.855 5.56a1 1 0 0 0 1.414-1.414z"/></g></svg>
    <svg xmlns="http://www.w3.org/2000/svg" width="200" height="200" viewBox="0 0 24 24"><g fill="none" stroke="currentColor" stroke-linecap="round" stroke-linejoin="round" stroke-width="2"><path d="M5 21h9m-4 0l-7-8l8.5-5.5"/><path d="M13 14c-2.148-2.148-2.148-5.852 0-8c2.088-2.088 5.842-1.972 8 0l-8 8z"/><path d="m11.742 7.574l-1.156-1.156a2 2 0 0 1 2.828-2.829l1.144 1.144M15.5 12l.208.274a2.527 2.527 0 0 0 3.556 0c.939-.933.98-2.42.122-3.4l-.366-.369"/></g></svg>
   
 