<?xml version="1.0" encoding="UTF-8" standalone="no"?>
<svg
   width="200"
   height="200"
   viewBox="0 0 24 24"
   version="1.1"
   id="svg7983"
   sodipodi:docname="light.svg"
   xml:space="preserve"
   inkscape:version="1.2.2 (b0a8486541, 2022-12-01)"
   xmlns:inkscape="http://www.inkscape.org/namespaces/inkscape"
   xmlns:sodipodi="http://sodipodi.sourceforge.net/DTD/sodipodi-0.dtd"
   xmlns="http://www.w3.org/2000/svg"
   xmlns:svg="http://www.w3.org/2000/svg"><defs
     id="defs7987" /><sodipodi:namedview
     id="namedview7985"
     pagecolor="#ffffff"
     bordercolor="#000000"
     borderopacity="0.25"
     inkscape:showpageshadow="2"
     inkscape:pageopacity="0.0"
     inkscape:pagecheckerboard="0"
     inkscape:deskcolor="#d1d1d1"
     showgrid="false"
     inkscape:zoom="0.39655618"
     inkscape:rotation="26"
     inkscape:cx="933.28596"
     inkscape:cy="-689.46661"
     inkscape:window-width="1920"
     inkscape:window-height="982"
     inkscape:window-x="0"
     inkscape:window-y="26"
     inkscape:window-maximized="1"
     inkscape:current-layer="svg7983" /><g
     id="g15493"><path
       id="path10460"
       style="stroke-width:0.602902"
       d="m 0.487299,15.202939 7.4308589,0.05154 -1.500463,0.085 c -0.01168,6.62e-4 0.850261,0.106698 0.929611,-0.01952 0.18534,-0.294728 -1.718613,-2.949398 -1.803168,-2.94773 l -4.7176326,0.0931 c -0.084555,0.0017 -0.1623411,0.0424 -0.2333078,0.127192 -0.070599,0.08436 -0.1058985,0.177279 -0.1058985,0.278769 z m 0,3.396635 h 8.8248789 l -1.07338,-2.663908 -7.7514989,-0.0737 z m 0.3392063,3.396634 h 8.1464666 c 0.08457,0 0.16234,-0.0424 0.233307,-0.1272 0.0706,-0.08435 0.105899,-0.177278 0.105899,-0.278769 V 19.258603 H 0.487299 v 2.331643 c 0,0.101491 0.035299,0.194414 0.1058985,0.278769 0.070967,0.0848 0.148736,0.1272 0.2333078,0.1272 z m 0.6370459,-7.629577 v -1.06499 H 2.354864 v 1.06499 H 1.4629997 Z m 0,3.396636 V 16.698276 H 2.354864 v 1.064991 H 1.4629997 Z m 0,3.396633 V 20.09491 H 2.354864 V 21.1599 H 1.4629997 Z"
       sodipodi:nodetypes="cccssssscccccccsssccsscccccccccccccccccccc" /><g
       fill="none"
       fill-rule="evenodd"
       id="g11310"><path
         fill="currentColor"
         d="m 19.83,4.829 c 0.09143,0.3447065 -0.0076,0.712016 -0.26,0.964 L 17.804,7.56 c 2.782217,2.828567 -1.415089,7.024883 -4.243,4.242 l -1.767,1.768 c -0.542936,0.543089 -1.470027,0.2969 -1.672,-0.444 L 9.085,9.329 6.287,12.127 7.6752382,14.209622 11.535,20 H 14 c 1.333333,0 1.333333,2 0,2 H 8 C 6.6666672,22 6.6666672,20 8,20 H 9.13 L 4.622,13.237 C 4.0929852,12.443647 4.1976294,11.387159 4.872,10.713 L 8.478,7.107 7.998,5.349 C 7.9037524,5.0027956 8.002208,4.632633 8.256,4.379 L 10.378,2.257 C 10.63184,2.003565 11.001975,1.9054983 11.348,2 l 7.778,2.12 c 0.343992,0.094073 0.611854,0.3642205 0.703,0.709 m -4.855,5.56 c 0.942526,0.910322 2.324322,-0.4714736 1.414,-1.414 z"
         id="path11308"
         sodipodi:nodetypes="ccccccccccssssccccccccccccc" /><path
         d="M 24,0 V 24 H 0 V 0 Z m -11.406,23.258 -0.012,0.002 -0.071,0.035 -0.02,0.004 -0.014,-0.004 -0.071,-0.036 c -0.01,-0.003 -0.019,0 -0.024,0.006 l -0.004,0.01 -0.017,0.428 0.005,0.02 0.01,0.013 0.104,0.074 0.015,0.004 0.012,-0.004 0.104,-0.074 0.012,-0.016 0.004,-0.017 -0.017,-0.427 c -0.002,-0.01 -0.009,-0.017 -0.016,-0.018 m 0.264,-0.113 -0.014,0.002 -0.184,0.093 -0.01,0.01 -0.003,0.011 0.018,0.43 0.005,0.012 0.008,0.008 0.201,0.092 c 0.012,0.004 0.023,0 0.029,-0.008 l 0.004,-0.014 -0.034,-0.614 c -0.003,-0.012 -0.01,-0.02 -0.02,-0.022 m -0.715,0.002 a 0.023,0.023 0 0 0 -0.027,0.006 l -0.006,0.014 -0.034,0.614 c 0,0.012 0.007,0.02 0.017,0.024 l 0.015,-0.002 0.201,-0.093 0.01,-0.008 0.003,-0.011 0.018,-0.43 -0.003,-0.012 -0.01,-0.01 z"
         id="path11306" /></g></g></svg>
